<svg width="589" height="589" xmlns="http://www.w3.org/2000/svg">

 <g>
  <title>background</title>
  <rect fill="none" id="canvas_background" height="602" width="802" y="-1" x="-1"/>
 </g>
 <g>
  <title>Layer 1</title>
  <circle id="svg_1" r="294.5" fill="#C48157" cy="294.781" cx="293.945"/>
  <path style="
    fill: rgb(48,48,48);
" id="svg_2" fill="#3B2F0E" d="m393.704,86.677l-65.239,0c-38.715,0 -81.777,16.283 -81.777,72.402c0.189,19.554 0,38.281 0,59.357l-44.788,0l0,71.271l46.174,0l0,205.177l84.847,0l0,-206.531l56.002,0l5.067,-70.117l-62.531,0s0.14,-31.191 0,-40.249c0,-22.177 23.076,-20.907 24.464,-20.907c10.981,0 32.332,0.032 37.813,0l0,-70.403l-0.032,0z"/>
 </g>
</svg>