<svg width="497.951" height="497.95" xmlns="http://www.w3.org/2000/svg">

 <g>
  <title>background</title>
  <rect fill="none" id="canvas_background" height="602" width="802" y="-1" x="-1"/>
 </g>
 <g>
  <title>Layer 1</title>
  <path id="svg_1" fill="#C48157" d="m248,0.025c-137.506,0 -248.975,111.469 -248.975,248.975s111.469,248.975 248.975,248.975s248.976,-111.469 248.976,-248.975c-0.001,-137.506 -111.472,-248.975 -248.976,-248.975zm-66.427,369.343l-54.665,0l0,-176.607l54.665,0l0,176.607zm-27.593,-199.735c-17.853,0 -32.326,-14.591 -32.326,-32.587c0,-17.998 14.475,-32.588 32.326,-32.588s32.324,14.59 32.324,32.588c0.001,17.997 -14.472,32.587 -32.324,32.587zm232.45,199.735l-54.4,0l0,-92.704c0,-25.426 -9.658,-39.619 -29.763,-39.619c-21.881,0 -33.312,14.782 -33.312,39.619l0,92.704l-52.43,0l0,-176.607l52.43,0l0,23.786s15.771,-29.173 53.219,-29.173c37.449,0 64.257,22.866 64.257,70.169l-0.001,111.825z"/>
 </g>
</svg>